<svg width="32" height="32" viewBox="0 0 32 32" fill="none" xmlns="http://www.w3.org/2000/svg">
<g id="icon user">
<g id="Union">
<path fill-rule="evenodd" clip-rule="evenodd" d="M16.0002 4.2C12.2447 4.2 9.2002 7.24446 9.2002 11C9.2002 14.7555 12.2447 17.8 16.0002 17.8C19.7557 17.8 22.8002 14.7555 22.8002 11C22.8002 7.24446 19.7557 4.2 16.0002 4.2ZM10.8002 11C10.8002 8.12812 13.1283 5.8 16.0002 5.8C18.8721 5.8 21.2002 8.12812 21.2002 11C21.2002 13.8719 18.8721 16.2 16.0002 16.2C13.1283 16.2 10.8002 13.8719 10.8002 11Z" fill="#231F20"/>
<path d="M11.358 19.7155C11.7531 19.518 11.9133 19.0374 11.7157 18.6422C11.5181 18.2471 11.0376 18.0869 10.6424 18.2845C10.6094 18.301 10.5725 18.3192 10.532 18.3393C9.97384 18.6155 8.72825 19.2319 7.5948 20.2357C6.37397 21.3169 5.2002 22.9217 5.2002 25.1177C5.2002 25.718 5.35894 26.4002 5.83874 26.9421C6.33493 27.5025 7.07403 27.8 8.0002 27.8H24.0002C24.9264 27.8 25.6655 27.5025 26.1617 26.9421C26.6414 26.4002 26.8002 25.718 26.8002 25.1177C26.8002 22.9217 25.6264 21.3169 24.4056 20.2357C23.2721 19.2319 22.0266 18.6155 21.4685 18.3393C21.4281 18.3193 21.3908 18.3009 21.358 18.2845C20.9628 18.0869 20.4822 18.2471 20.2847 18.6422C20.0871 19.0374 20.2472 19.518 20.6424 19.7155L20.7495 19.7688C21.3039 20.0439 22.3773 20.5766 23.3448 21.4335C24.374 22.3449 25.2002 23.5489 25.2002 25.1177C25.2002 25.4585 25.1089 25.7174 24.9637 25.8814C24.8349 26.0269 24.574 26.2 24.0002 26.2H8.0002C7.42636 26.2 7.16546 26.0269 7.03665 25.8814C6.89145 25.7174 6.8002 25.4585 6.8002 25.1177C6.8002 23.5489 7.62642 22.3449 8.65559 21.4335C9.62306 20.5766 10.6965 20.044 11.2509 19.7688L11.358 19.7155Z" fill="#231F20"/>
</g>
</g>
</svg>
