<svg width="32" height="32" viewBox="0 0 32 32" fill="none" xmlns="http://www.w3.org/2000/svg">
<g id="icon cart">
<g id="Union">
<path fill-rule="evenodd" clip-rule="evenodd" d="M2.0002 5.2C1.55837 5.2 1.2002 5.55817 1.2002 6C1.2002 6.44182 1.55837 6.8 2.0002 6.8H6.37557L10.2241 22.194C10.3131 22.5502 10.6331 22.8 11.0002 22.8H25.0002C25.3558 22.8 25.6686 22.5653 25.7682 22.224L29.2682 10.224C29.3387 9.98226 29.2913 9.72144 29.1402 9.52C28.9891 9.31855 28.752 9.2 28.5002 9.2H9.0002C8.87282 9.2 8.75239 9.22977 8.6455 9.28273L7.77631 5.80597C7.68728 5.44983 7.36729 5.2 7.0002 5.2H2.0002ZM11.6248 21.2L9.02482 10.8H27.4335L24.4002 21.2H11.6248Z" fill="#231F20"/>
<path fill-rule="evenodd" clip-rule="evenodd" d="M10.2002 25.5C10.2002 24.2297 11.2299 23.2 12.5002 23.2C13.7705 23.2 14.8002 24.2297 14.8002 25.5C14.8002 26.7703 13.7705 27.8 12.5002 27.8C11.2299 27.8 10.2002 26.7703 10.2002 25.5ZM12.5002 24.8C12.1136 24.8 11.8002 25.1134 11.8002 25.5C11.8002 25.8866 12.1136 26.2 12.5002 26.2C12.8868 26.2 13.2002 25.8866 13.2002 25.5C13.2002 25.1134 12.8868 24.8 12.5002 24.8Z" fill="#231F20"/>
<path fill-rule="evenodd" clip-rule="evenodd" d="M21.2002 25.5C21.2002 24.2297 22.2299 23.2 23.5002 23.2C24.7705 23.2 25.8002 24.2297 25.8002 25.5C25.8002 26.7703 24.7705 27.8 23.5002 27.8C22.2299 27.8 21.2002 26.7703 21.2002 25.5ZM23.5002 24.8C23.1136 24.8 22.8002 25.1134 22.8002 25.5C22.8002 25.8866 23.1136 26.2 23.5002 26.2C23.8868 26.2 24.2002 25.8866 24.2002 25.5C24.2002 25.1134 23.8868 24.8 23.5002 24.8Z" fill="#231F20"/>
</g>
</g>
</svg>
