<svg width="24" height="17" viewBox="0 0 24 17" fill="none" xmlns="http://www.w3.org/2000/svg">
<path fill-rule="evenodd" clip-rule="evenodd" d="M7.8132 13H15.1395C15.0292 13.3128 14.9692 13.6494 14.9692 14C14.9692 15.6569 16.3095 17 17.963 17C19.6164 17 20.9568 15.6569 20.9568 14C20.9568 13.6494 20.8968 13.3128 20.7865 13H23.0021C23.5532 13 24 12.5523 24 12V8C24 7.52468 23.6691 7.12682 23.2255 7.02516C23.1163 6.70911 22.9228 6.39331 22.8295 6.21143L20.7135 3.08578C20.3716 2.41912 19.6864 2 18.9384 2H15.9671V1C15.9671 0.447715 15.5203 0 14.9692 0H0.997944C0.446795 0 0 0.447716 0 1V12C0 12.5523 0.446795 13 0.997944 13H2.16624C2.05592 13.3128 1.99589 13.6494 1.99589 14C1.99589 15.6569 3.33627 17 4.98972 17C6.64317 17 7.98355 15.6569 7.98355 14C7.98355 13.6494 7.92352 13.3128 7.8132 13ZM1.39712 1.4V11.6H3.19313C3.69355 11.2233 4.31562 11 4.98972 11C5.66383 11 6.2859 11.2233 6.78631 11.6H14.5647L14.57 1.4H1.39712ZM15.9671 3.4V6.9971H21.4982C21.5684 6.9971 21.6207 6.91718 21.5869 6.85139L19.4709 3.72573C19.3683 3.52574 19.1628 3.4 18.9384 3.4H15.9671ZM15.9618 11.6H16.1664C16.6668 11.2233 17.2889 11 17.963 11C18.6371 11 19.2592 11.2233 19.7596 11.6H22.6029V8.4H15.9671L15.9618 11.6ZM19.5597 14C19.5597 14.8837 18.8448 15.6 17.963 15.6C17.0812 15.6 16.3663 14.8837 16.3663 14C16.3663 13.1163 17.0812 12.4 17.963 12.4C18.8448 12.4 19.5597 13.1163 19.5597 14ZM6.58643 14C6.58643 14.8837 5.87156 15.6 4.98972 15.6C4.10788 15.6 3.39301 14.8837 3.39301 14C3.39301 13.1163 4.10788 12.4 4.98972 12.4C5.87156 12.4 6.58643 13.1163 6.58643 14Z" fill="#FFB634"/>
</svg>
